<svg width="24" height="24" viewBox="0 0 24 24" fill="none" xmlns="http://www.w3.org/2000/svg">
<circle cx="12.32" cy="12.0801" r="3.5" fill="#FFCC00"/>
<path d="M5.49523 11.7046H6.96188C7.22854 11.7046 7.45711 11.9332 7.45711 12.1998C7.45711 12.4665 7.22854 12.6951 6.96188 12.6951H5.49523C5.22857 12.6951 5 12.4665 5 12.1998C5 11.9332 5.22857 11.7046 5.49523 11.7046Z" fill="#FFCC00"/>
<path d="M17.4379 11.7046H18.9045C19.1712 11.7046 19.3998 11.9332 19.3998 12.1998C19.3998 12.4665 19.1712 12.6951 18.9045 12.6951H17.4379C17.1712 12.6951 16.9427 12.4665 16.9427 12.1998C16.9427 11.9332 17.1712 11.7046 17.4379 11.7046Z" fill="#FFCC00"/>
<path d="M12.1999 16.9424C12.4665 16.9424 12.6951 17.171 12.6951 17.4376V18.9043C12.6951 19.1709 12.4665 19.3995 12.1999 19.3995C11.9332 19.3995 11.7047 19.1709 11.7047 18.9043V17.4376C11.7047 17.171 11.9332 16.9424 12.1999 16.9424Z" fill="#FFCC00"/>
<path d="M7.11427 16.5996L8.16187 15.552C8.3333 15.3616 8.6571 15.3616 8.84758 15.552C9.03805 15.7425 9.03805 16.0473 8.84758 16.2377L7.79997 17.2853C7.6095 17.4758 7.30474 17.4758 7.11427 17.2853C6.9238 17.0949 6.9238 16.7901 7.11427 16.5996Z" fill="#FFCC00"/>
<path d="M12.1999 5C12.4665 5 12.6951 5.22857 12.6951 5.49523V6.96188C12.6951 7.22854 12.4665 7.45711 12.1999 7.45711C11.9332 7.45711 11.7047 7.22854 11.7047 6.96188V5.49523C11.7047 5.22857 11.9332 5 12.1999 5Z" fill="#FFCC00"/>
<path d="M7.0952 7.11453C7.28567 6.92406 7.59043 6.92406 7.7809 7.11453L8.8285 8.16214C9.01898 8.35261 9.01898 8.65737 8.8285 8.84784C8.65708 9.03832 8.33327 9.03832 8.1428 8.84784L7.0952 7.80024C6.90472 7.60977 6.90472 7.30501 7.0952 7.11453Z" fill="#FFCC00"/>
<path d="M15.5713 15.552C15.7427 15.3616 16.0665 15.3616 16.257 15.552L17.3046 16.5996C17.495 16.7901 17.495 17.0949 17.3046 17.2853C17.1141 17.4758 16.8093 17.4758 16.6189 17.2853L15.5713 16.2377C15.3808 16.0473 15.3808 15.7425 15.5713 15.552Z" fill="#FFCC00"/>
<path d="M15.5713 8.16214L16.6189 7.11453C16.8093 6.92406 17.1141 6.92406 17.3046 7.11453C17.495 7.30501 17.495 7.60977 17.3046 7.80024L16.257 8.84784C16.0665 9.03832 15.7617 9.03832 15.5713 8.84784C15.3808 8.65737 15.3808 8.35261 15.5713 8.16214Z" fill="#FFCC00"/>
</svg>
