<svg width="67" height="67" viewBox="0 0 67 67" fill="none" xmlns="http://www.w3.org/2000/svg">
<path d="M38 32.75L38.05 23.6C38.05 22.3333 37.5833 21.2667 36.65 20.4C35.8167 19.5 34.7667 19.05 33.5 19.05C32.2333 19.05 31.1333 19.5 30.2 20.4C29.3667 21.2667 28.95 22.3333 28.95 23.6V32.75C28.95 34.05 29.3667 35.1333 30.2 36C31.1333 36.8667 32.2333 37.3 33.5 37.3C34.7667 37.3 35.8167 36.8667 36.65 36C37.55 35.1 38 34.0167 38 32.75ZM44.15 32.75H41.45C41.45 34.9833 40.65 36.8667 39.05 38.4C37.45 39.8333 35.5833 40.55 33.45 40.55C31.2833 40.55 29.3833 39.8333 27.75 38.4C26.15 36.8667 25.35 34.9833 25.35 32.75H22.8C22.8 35.3167 23.6833 37.6 25.45 39.6C27.25 41.4667 29.4333 42.6 32 43V47.95H35V43C37.5333 42.6 39.6667 41.4667 41.4 39.6C43.2333 37.6 44.15 35.3167 44.15 32.75Z" fill="white"/>
<path d="M65.5 33.5C65.5 42.3333 62.3667 49.8833 56.1 56.15C49.8667 62.3833 42.3333 65.5 33.5 65.5C24.7 65.5 17.1667 62.3833 10.9 56.15C4.63333 49.8833 1.5 42.3333 1.5 33.5C1.5 24.7 4.63333 17.1667 10.9 10.9C17.1667 4.63333 24.7 1.5 33.5 1.5C42.3333 1.5 49.8667 4.63333 56.1 10.9C62.3667 17.1667 65.5 24.7 65.5 33.5Z" stroke="white" stroke-width="3" stroke-linecap="round" stroke-linejoin="round"/>
</svg>
