<svg width="128" height="256" viewBox="0 0 128 256" fill="none" xmlns="http://www.w3.org/2000/svg">
<path d="M19.6735 53.8832C18.4107 58.0638 18.1103 62.4406 18.7724 67.0136C18.7724 67.5653 18.7969 68.0863 18.8459 68.5767C21.2734 91.5518 32.5954 105.295 52.8121 109.807C57.4341 110.91 62.2522 111.272 67.2665 110.892C81.0344 109.837 91.5289 105.265 98.75 97.173C104.426 90.6139 107.375 81.609 107.596 70.1582C108.147 50.6036 102.667 36.7193 91.155 28.5051C83.5538 22.8901 72.7283 20.9101 58.6784 22.5652C37.8488 25.0907 24.8472 35.5301 19.6735 53.8832ZM41.1529 48.7524C41.5942 48.7524 41.9804 48.9179 42.3114 49.2489C42.6425 49.5186 42.808 49.8742 42.808 50.3155V78.8199L53.3822 74.0385V50.3155C53.3822 49.8742 53.5477 49.5186 53.8787 49.2489C54.1607 48.9179 54.5223 48.7524 54.9637 48.7524H59.7451C60.1374 48.7524 60.499 48.9179 60.8301 49.2489C61.0998 49.5799 61.2346 49.9355 61.2346 50.3155V77.2567C61.2346 77.4284 61.1549 77.6797 60.9956 78.0107C60.7749 78.3417 60.5236 78.5869 60.2416 78.7463L42.9735 87.4999C42.7528 87.5612 42.5321 87.5918 42.3114 87.5918C42.1521 87.6409 41.9314 87.6409 41.6494 87.5918L35.544 85.3483C35.2129 85.1889 34.9371 84.9437 34.7164 84.6127C34.5448 84.392 34.459 84.0916 34.459 83.7116V50.3155C34.459 49.8742 34.5999 49.5186 34.8819 49.2489C35.2129 48.9179 35.5991 48.7524 36.0405 48.7524H41.1529ZM71.8088 48.9179C72.0295 48.8076 72.2808 48.7524 72.5628 48.7524H90.07C90.401 48.7524 90.7075 48.8076 90.9895 48.9179C91.2592 49.1386 91.4492 49.3593 91.5596 49.5799C91.7312 49.8497 91.817 50.1255 91.817 50.4075L91.486 55.1153C91.486 55.385 91.4002 55.6302 91.2286 55.8509C91.0692 56.1329 90.8791 56.3535 90.6585 56.5129L79.3303 63.2068L90.1619 66.186C90.6033 66.2963 90.8791 66.4864 90.9895 66.7561C91.3205 67.0381 91.486 67.3691 91.486 67.7492V77.2567C91.486 77.5877 91.4002 77.8636 91.2286 78.0843C91.0692 78.3663 90.824 78.5869 90.493 78.7463L72.7283 87.4999C72.5076 87.5612 72.2563 87.5918 71.9743 87.5918C71.7046 87.5918 71.4288 87.5367 71.1468 87.4263L66.0344 84.4472C65.8137 84.3368 65.6176 84.1713 65.4459 83.9506C65.3356 83.6809 65.2804 83.3806 65.2804 83.0495V53.3866C65.2804 53.1047 65.3356 52.8288 65.4459 52.5591C65.6176 52.3384 65.8382 52.1423 66.108 51.9706L71.8088 48.9179ZM73.8869 67.5836C73.7152 67.5346 73.5743 67.5346 73.4639 67.5836C73.3536 67.6449 73.2432 67.7553 73.1329 67.9147C73.0839 68.025 73.0593 68.1353 73.0593 68.2457V79.8129C73.0593 80.0336 73.0839 80.1991 73.1329 80.3094C73.2432 80.4198 73.3842 80.5056 73.5559 80.5669C73.6662 80.5669 73.8011 80.5363 73.9604 80.475L83.799 75.4361C83.8481 75.3871 83.9278 75.3074 84.0381 75.1971V70.6548C84.0381 70.4831 84.0381 70.3176 84.0381 70.1582C83.9278 70.0479 83.7929 69.9927 83.6335 69.9927L73.8869 67.5836ZM81.721 54.2878C81.721 54.018 81.6658 53.828 81.5555 53.7177C81.3961 53.546 81.2061 53.4602 80.9854 53.4602H73.8869C73.6662 53.4602 73.5007 53.546 73.3904 53.7177C73.1697 53.828 73.0593 54.018 73.0593 54.2878V57.9289C73.0593 58.0393 73.139 58.2048 73.2984 58.4255C73.4087 58.5358 73.5191 58.6155 73.6294 58.6645C73.8011 58.6645 73.9666 58.64 74.126 58.591L81.2428 55.4463C81.3409 55.385 81.4758 55.2747 81.6474 55.1153C81.6965 55.054 81.721 54.9437 81.721 54.7843V54.2878ZM28.9052 161.74C28.3535 161.286 27.6915 160.937 26.9191 160.692C26.1222 160.446 25.2272 160.324 24.2342 160.324H18.1471V176.36H19.9861V171.303L25.3192 171.247L28.6294 176.36H30.7074L26.9743 170.916C27.5382 170.72 28.047 170.469 28.5006 170.162C28.942 169.831 29.3159 169.451 29.6224 169.022C29.9289 168.581 30.1618 168.084 30.3212 167.533C30.4806 166.981 30.5603 166.374 30.5603 165.712C30.5603 164.866 30.4193 164.106 30.1373 163.432C29.8554 162.77 29.4446 162.206 28.9052 161.74ZM26.1835 162.328C26.7475 162.488 27.2195 162.721 27.5995 163.027C28.0041 163.334 28.2983 163.714 28.4822 164.167C28.6907 164.621 28.7949 165.154 28.7949 165.767C28.7949 166.38 28.6907 166.926 28.4822 167.404C28.2983 167.87 28.0041 168.262 27.5995 168.581C27.2195 168.9 26.7475 169.139 26.1835 169.298C25.6073 169.458 24.9575 169.537 24.2342 169.537H19.9861V162.089H24.2342C24.9698 162.089 25.6195 162.169 26.1835 162.328ZM42.7344 165.308C42.4279 165.075 42.0969 164.878 41.7414 164.719C41.3736 164.56 40.9812 164.443 40.5644 164.37L39.2035 164.259C38.3208 164.259 37.5117 164.406 36.7761 164.701C36.0527 164.983 35.4214 165.393 34.8819 165.933C34.3547 166.484 33.944 167.134 33.6498 167.882C33.3556 168.63 33.2084 169.445 33.2084 170.328C33.2084 171.223 33.3556 172.05 33.6498 172.811C33.9318 173.546 34.3425 174.184 34.8819 174.723C35.4214 175.275 36.0527 175.692 36.7761 175.974C37.5239 176.28 38.3392 176.433 39.2219 176.433C39.7246 176.433 40.2027 176.384 40.6563 176.286C41.1222 176.2 41.5575 176.072 41.962 175.9C42.3789 175.728 42.7589 175.514 43.1022 175.256C43.4577 175.011 43.7826 174.729 44.0769 174.411L43.0838 173.362C42.6179 173.853 42.0662 174.227 41.4287 174.484C40.7912 174.742 40.0985 174.87 39.3507 174.87C38.7744 174.87 38.235 174.784 37.7324 174.613C37.2297 174.429 36.7883 174.171 36.4083 173.84C36.0282 173.497 35.7156 173.093 35.4704 172.627C35.2129 172.136 35.0474 171.603 34.9739 171.027H44.8125C44.8738 169.997 44.7879 169.065 44.555 168.232C44.3466 167.398 44.0094 166.681 43.5436 166.08C43.2984 165.786 43.0286 165.528 42.7344 165.308ZM42.054 166.797C42.3973 167.128 42.6731 167.527 42.8815 167.992C43.0777 168.458 43.188 168.979 43.2125 169.556H34.9739C35.0474 168.992 35.2007 168.477 35.4336 168.011C35.6666 167.545 35.9669 167.147 36.3347 166.815C36.7025 166.472 37.1255 166.215 37.6036 166.043C38.094 165.871 38.6273 165.786 39.2035 165.786C39.7798 165.786 40.3131 165.871 40.8035 166.043C41.2816 166.215 41.6984 166.466 42.054 166.797ZM57.1153 168.379C57.103 167.741 56.9927 167.165 56.7843 166.65C56.5881 166.135 56.2939 165.694 55.9016 165.326C55.497 164.97 55.0127 164.695 54.4488 164.498C53.8603 164.314 53.1983 164.223 52.4627 164.223C51.2121 164.321 50.3294 164.462 49.8145 164.645C49.1525 164.891 48.3985 165.289 47.5526 165.841L48.2882 167.165C48.9502 166.699 49.5816 166.356 50.1823 166.135C50.8321 165.902 51.4757 165.786 52.1133 165.786C52.6404 165.786 53.1124 165.847 53.5293 165.97C53.9339 166.092 54.271 166.282 54.5407 166.54C54.7982 166.773 55.0005 167.067 55.1476 167.422C55.2824 167.766 55.3499 168.158 55.3499 168.599V169.298H51.396C50.6972 169.31 50.0597 169.396 49.4835 169.556C48.9318 169.715 48.4598 169.948 48.0675 170.254C47.6752 170.549 47.3809 170.91 47.1848 171.339C46.9763 171.769 46.8721 172.241 46.8721 172.755C46.8721 173.283 46.9702 173.773 47.1664 174.227C47.3625 174.668 47.6384 175.054 47.9939 175.385C48.3617 175.728 48.7908 175.992 49.2812 176.176C49.7961 176.36 50.3601 176.452 50.9731 176.452L52.3339 176.323C52.7753 176.25 53.1799 176.133 53.5477 175.974C53.9155 175.802 54.2526 175.6 54.5591 175.367C54.8779 175.122 55.1537 174.833 55.3867 174.502V176.36H57.1337L57.1153 168.379ZM55.3683 170.751V172.185C55.2579 172.602 55.0802 172.982 54.835 173.326C54.5898 173.657 54.2894 173.939 53.9338 174.171C53.5906 174.404 53.1921 174.582 52.7385 174.705C52.2971 174.827 51.8251 174.889 51.3225 174.889C50.9057 174.889 50.5195 174.84 50.1639 174.742C49.8329 174.631 49.5448 174.484 49.2996 174.3C49.0544 174.104 48.8705 173.871 48.7479 173.601C48.613 173.319 48.5456 173.019 48.5456 172.7C48.5456 172.369 48.613 172.081 48.7479 171.836C48.8828 171.591 49.0789 171.388 49.3364 171.229C49.5816 171.07 49.8942 170.947 50.2743 170.861C50.6543 170.788 51.1018 170.751 51.6167 170.751H55.3683ZM47.3319 132.592H42.6608V147.23H47.3319V132.592ZM45.0148 125.916C44.3037 125.916 43.7152 126.149 43.2493 126.615C42.7834 127.081 42.5505 127.676 42.5505 128.399C42.5505 129.135 42.7834 129.729 43.2493 130.183C43.7152 130.649 44.3037 130.882 45.0148 130.882C45.7381 130.882 46.3266 130.649 46.7802 130.183C47.2583 129.729 47.4974 129.135 47.4974 128.399C47.4974 127.676 47.2583 127.081 46.7802 126.615C46.3266 126.149 45.7381 125.916 45.0148 125.916ZM60.0761 132.592L57.4831 136.822L55.0372 132.592H49.6674L54.32 139.746L49.3364 147.23H54.4855L57.4831 142.651L60.1312 147.23H65.5379L60.5726 139.709L65.2069 132.592H60.0761ZM28.4639 139.525L23.2963 128.197H18V147.23H22.3216V134.872L26.8823 145.336H30.027L34.5877 134.872L34.6245 147.23H38.8725V128.197H33.613L28.4639 139.525ZM63.0185 176.36V159.368H61.2346V176.36H63.0185ZM69.2342 164.296H67.4872V176.36H69.2342V164.296ZM69.1791 161.721C69.3997 161.489 69.5101 161.188 69.5101 160.82C69.5101 160.477 69.3997 160.183 69.1791 159.938C68.9584 159.717 68.6764 159.607 68.3331 159.607C68.0144 159.607 67.7385 159.717 67.5056 159.938C67.2849 160.183 67.1746 160.477 67.1746 160.82C67.1746 161.188 67.2849 161.489 67.5056 161.721C67.7385 161.954 68.0144 162.071 68.3331 162.071C68.6764 162.071 68.9584 161.954 69.1791 161.721ZM84.2588 164.296H82.5117V176.36H84.2588V164.296ZM79.6061 166.135V164.645L75.781 164.682V161.501H74.0156V164.682H72.2686V166.135H74.0156V173.013C74.0156 173.601 74.0892 174.116 74.2363 174.558C74.3957 174.987 74.6163 175.342 74.8983 175.624C75.168 175.894 75.4868 176.102 75.8546 176.25C76.2224 176.384 76.6331 176.452 77.0867 176.452C77.5649 176.44 78.0307 176.354 78.4844 176.194C78.938 176.047 79.3793 175.827 79.8084 175.532L79.3119 174.098C78.6376 174.515 77.994 174.723 77.381 174.723C76.8538 174.723 76.4553 174.57 76.1856 174.263C75.9159 173.932 75.781 173.411 75.781 172.7V166.135H79.6061ZM82.5301 159.938C82.3095 160.183 82.1991 160.477 82.1991 160.82C82.1991 161.188 82.3095 161.489 82.5301 161.721C82.7631 161.954 83.0389 162.071 83.3577 162.071C83.701 162.071 83.9829 161.954 84.2036 161.721C84.4243 161.489 84.5346 161.188 84.5346 160.82C84.5346 160.477 84.4243 160.183 84.2036 159.938C83.9829 159.717 83.701 159.607 83.3577 159.607C83.0389 159.607 82.7631 159.717 82.5301 159.938ZM94.741 164.37L93.3802 164.259C92.4975 164.259 91.6883 164.406 90.9527 164.701C90.2294 164.983 89.598 165.393 89.0585 165.933C88.5314 166.484 88.1207 167.134 87.8264 167.882C87.5322 168.63 87.3851 169.445 87.3851 170.328C87.3851 171.223 87.5322 172.05 87.8264 172.811C88.1084 173.546 88.5191 174.184 89.0585 174.723C89.598 175.275 90.2294 175.692 90.9527 175.974C91.7006 176.28 92.5158 176.433 93.3986 176.433C93.9012 176.433 94.3794 176.384 94.833 176.286C95.2988 176.2 95.7341 176.072 96.1387 175.9C96.5555 175.728 96.9356 175.514 97.2788 175.256C97.6344 175.011 97.9593 174.729 98.2535 174.411L97.2604 173.362C96.7946 173.853 96.2429 174.227 95.6053 174.484C94.9678 174.742 94.2751 174.87 93.5273 174.87C92.9511 174.87 92.4116 174.784 91.909 174.613C91.4063 174.429 90.965 174.171 90.5849 173.84C90.2049 173.497 89.8922 173.093 89.647 172.627C89.3896 172.136 89.2241 171.603 89.1505 171.027H98.9891C99.0504 169.997 98.9646 169.065 98.7316 168.232C98.5232 167.398 98.1861 166.681 97.7202 166.08C97.475 165.786 97.2053 165.528 96.911 165.308C96.6045 165.075 96.2735 164.878 95.918 164.719C95.5502 164.56 95.1579 164.443 94.741 164.37ZM96.2306 166.797C96.5739 167.128 96.8497 167.527 97.0582 167.992C97.2543 168.458 97.3646 168.979 97.3892 169.556H89.1505C89.2241 168.992 89.3773 168.477 89.6102 168.011C89.8432 167.545 90.1435 167.147 90.5113 166.815C90.8791 166.472 91.3021 166.215 91.7803 166.043C92.2706 165.871 92.804 165.786 93.3802 165.786C93.9564 165.786 94.4897 165.871 94.9801 166.043C95.4582 166.215 95.8751 166.466 96.2306 166.797ZM108.46 166.742L109.14 165.326C108.625 164.97 108.037 164.701 107.375 164.517C106.701 164.321 106.002 164.223 105.278 164.223C104.714 164.223 104.193 164.284 103.715 164.406C103.2 164.541 102.753 164.737 102.373 164.995C101.968 165.265 101.656 165.602 101.435 166.006C101.202 166.435 101.086 166.932 101.086 167.496C101.086 168.011 101.184 168.464 101.38 168.857C101.551 169.212 101.809 169.519 102.152 169.776C102.434 170.009 102.79 170.224 103.219 170.42L104.451 170.861C105.689 171.254 106.455 171.529 106.75 171.689C107.081 171.86 107.332 172.063 107.504 172.296C107.688 172.553 107.773 172.854 107.761 173.197C107.761 173.491 107.688 173.748 107.54 173.969C107.418 174.19 107.234 174.368 106.989 174.502C106.535 174.784 105.928 174.925 105.168 174.925C104.457 174.925 103.746 174.791 103.035 174.521C102.299 174.239 101.68 173.859 101.177 173.381L100.479 174.742C100.859 175.109 101.558 175.526 102.575 175.992C103.384 176.286 104.23 176.433 105.113 176.433C105.701 176.433 106.253 176.366 106.768 176.231C107.32 176.084 107.792 175.876 108.184 175.606C108.613 175.312 108.938 174.956 109.159 174.539C109.404 174.086 109.526 173.571 109.526 172.995C109.526 172.48 109.428 172.02 109.232 171.615C109.061 171.26 108.809 170.947 108.478 170.677C108.184 170.432 107.822 170.212 107.393 170.015L106.161 169.556C104.849 169.139 104.077 168.875 103.844 168.765C103.513 168.593 103.262 168.403 103.09 168.195C102.894 167.962 102.796 167.686 102.796 167.367C102.796 166.828 103.023 166.417 103.476 166.135C103.893 165.89 104.457 165.767 105.168 165.767C105.72 165.767 106.29 165.853 106.878 166.025C107.455 166.196 107.982 166.435 108.46 166.742ZM99.2098 132.445C98.3148 132.445 97.4811 132.604 96.7087 132.923C95.9486 133.254 95.2927 133.726 94.741 134.339C94.1893 134.952 93.7664 135.681 93.4721 136.527C93.1779 137.386 93.0308 138.33 93.0308 139.359C93.0308 140.414 93.184 141.382 93.4905 142.265C93.7847 143.123 94.22 143.871 94.7962 144.509C95.3601 145.134 96.0222 145.606 96.7823 145.925C97.5669 146.268 98.4129 146.44 99.3201 146.44C100.227 146.44 101.043 146.268 101.766 145.925C102.465 145.606 103.053 145.128 103.531 144.49V146.035C103.531 146.489 103.452 146.899 103.292 147.267C103.133 147.635 102.894 147.954 102.575 148.223C102.256 148.493 101.876 148.695 101.435 148.83C100.981 148.977 100.473 149.051 99.9086 149.051C99.1362 149.051 98.3516 148.922 97.5547 148.665C96.7823 148.407 96.059 148.046 95.3847 147.58L93.748 150.761C94.6307 151.35 95.6115 151.809 96.6904 152.14C97.4137 152.361 98.609 152.545 100.276 152.692C101.453 152.692 102.532 152.533 103.513 152.214C104.469 151.895 105.303 151.442 106.014 150.853C106.713 150.252 107.252 149.541 107.632 148.72L108.055 147.396L108.202 145.906V132.592H103.531V134.394C103.041 133.744 102.434 133.254 101.711 132.923C100.975 132.58 100.142 132.42 99.2098 132.445ZM98.2535 136.914C98.5355 136.595 98.8604 136.35 99.2282 136.178C99.6205 136.006 100.037 135.92 100.479 135.92C100.932 135.92 101.349 136 101.729 136.16C102.097 136.343 102.422 136.589 102.704 136.895C102.961 137.214 103.164 137.594 103.311 138.035C103.458 138.477 103.531 138.961 103.531 139.488C103.531 140.015 103.458 140.5 103.311 140.941C103.164 141.37 102.961 141.744 102.704 142.063C102.422 142.381 102.097 142.627 101.729 142.798C101.349 142.97 100.932 143.056 100.479 143.056C100.037 143.056 99.6205 142.97 99.2282 142.798C98.8604 142.627 98.5355 142.381 98.2535 142.063C97.9715 141.744 97.7631 141.37 97.6282 140.941C97.4811 140.5 97.4076 140.015 97.4076 139.488C97.4076 138.973 97.4811 138.495 97.6282 138.054C97.7631 137.612 97.9715 137.232 98.2535 136.914ZM72.195 132.592H67.524V147.23H72.195V132.592ZM71.6433 130.183C72.1215 129.729 72.3605 129.135 72.3605 128.399C72.3605 127.676 72.1215 127.081 71.6433 126.615C71.1897 126.149 70.6012 125.916 69.8779 125.916C69.1668 125.916 68.5783 126.149 68.1125 126.615C67.6466 127.081 67.4136 127.676 67.4136 128.399C67.4136 129.135 67.6466 129.729 68.1125 130.183C68.5783 130.649 69.1668 130.882 69.8779 130.882C70.6012 130.882 71.1897 130.649 71.6433 130.183ZM82.475 136.766C82.8305 136.607 83.2228 136.527 83.6519 136.527C84.032 136.527 84.3814 136.595 84.7001 136.73C85.0189 136.852 85.2947 137.036 85.5277 137.281C85.7484 137.527 85.92 137.815 86.0426 138.146C86.1529 138.489 86.2081 138.875 86.2081 139.304V147.23H90.8975V137.999C90.8975 137.153 90.7688 136.38 90.5113 135.681C90.2661 134.995 89.9045 134.406 89.4263 133.916C88.9605 133.413 88.3965 133.039 87.7345 132.794C87.0724 132.524 86.343 132.39 85.5461 132.39C85.0066 132.402 84.4917 132.457 84.0013 132.555C83.5232 132.678 83.0818 132.843 82.6773 133.052C82.2604 133.272 81.8865 133.548 81.5555 133.879C81.2122 134.198 80.9118 134.566 80.6544 134.983V132.592H75.9649V147.23H80.6544V139.488C80.7034 139.059 80.8076 138.661 80.967 138.293C81.1141 137.937 81.3164 137.631 81.5739 137.373C81.8436 137.104 82.1439 136.901 82.475 136.766Z" fill="white"/>
</svg>
