<svg width="68" height="67" viewBox="0 0 68 67" fill="none" xmlns="http://www.w3.org/2000/svg">
<path d="M48.8 24.3L42.15 31V25.15C42.15 24.7167 41.9833 24.3333 41.65 24C41.3167 23.6667 40.9167 23.5 40.45 23.5H20.45C20.0167 23.5 19.6333 23.6667 19.3 24C18.9667 24.3333 18.8 24.7167 18.8 25.15V41.8C18.8 42.2667 18.9667 42.6667 19.3 43C19.6333 43.3333 20.0167 43.5 20.45 43.5H40.45C40.9167 43.5 41.3167 43.3333 41.65 43C41.9833 42.6667 42.15 42.2667 42.15 41.8V36L48.8 42.65V24.3Z" fill="white"/>
<path d="M65.8 33.5C65.8 42.3333 62.6833 49.8833 56.45 56.15C50.1833 62.3833 42.6333 65.5 33.8 65.5C25 65.5 17.4667 62.3833 11.2 56.15C4.93334 49.8833 1.8 42.3333 1.8 33.5C1.8 24.7 4.93334 17.1667 11.2 10.9C17.4667 4.63333 25 1.5 33.8 1.5C42.6333 1.5 50.1833 4.63333 56.45 10.9C62.6833 17.1667 65.8 24.7 65.8 33.5Z" stroke="white" stroke-width="3" stroke-linecap="round" stroke-linejoin="round"/>
</svg>
